<?xml version="1.0" encoding="UTF-8" standalone="no"?><svg xmlns="http://www.w3.org/2000/svg" xmlns:xlink="http://www.w3.org/1999/xlink" contentScriptType="application/ecmascript" contentStyleType="text/css" height="2127px" preserveAspectRatio="none" style="width:614px;height:2127px;" version="1.1" viewBox="0 0 614 2127" width="614px" zoomAndPan="magnify"><defs/><g><!--MD5=[1bdb921dfb679bc8a0822edc86695374]
cluster 方案生成--><polygon fill="#E3F2FD" points="16,251,78,251,85,276.1201,418,276.1201,418,678,16,678,16,251" style="stroke: #424242; stroke-width: 1.5;"/><line style="stroke: #424242; stroke-width: 1.5;" x1="16" x2="85" y1="276.1201" y2="276.1201"/><text fill="#222222" font-family="'Input Mono','Microsoft YaHei Mono',Menlo, Monaco, 'Courier New', monospace" font-size="14" lengthAdjust="spacingAndGlyphs" textLength="56" x="20" y="269.0439">方案生成</text><!--MD5=[1c0b04e9f6b3897c2f7b748c3ddb878e]
cluster 方案执行--><polygon fill="#E3F2FD" points="251,711,313,711,320,736.1201,597,736.1201,597,1138,251,1138,251,711" style="stroke: #424242; stroke-width: 1.5;"/><line style="stroke: #424242; stroke-width: 1.5;" x1="251" x2="320" y1="736.1201" y2="736.1201"/><text fill="#222222" font-family="'Input Mono','Microsoft YaHei Mono',Menlo, Monaco, 'Courier New', monospace" font-size="14" lengthAdjust="spacingAndGlyphs" textLength="56" x="255" y="729.0439">方案执行</text><!--MD5=[9fb4b332a1b5c92c5f1468d7b31d2784]
cluster 态势生成--><polygon fill="#E3F2FD" points="69,1171,131,1171,138,1196.1201,373,1196.1201,373,1504,69,1504,69,1171" style="stroke: #424242; stroke-width: 1.5;"/><line style="stroke: #424242; stroke-width: 1.5;" x1="69" x2="138" y1="1196.1201" y2="1196.1201"/><text fill="#222222" font-family="'Input Mono','Microsoft YaHei Mono',Menlo, Monaco, 'Courier New', monospace" font-size="14" lengthAdjust="spacingAndGlyphs" textLength="56" x="73" y="1189.0439">态势生成</text><!--MD5=[420b28d904e36f48d12949edadb7b368]
cluster 训练评估--><polygon fill="#E3F2FD" points="219,1537,281,1537,288,1562.1201,551,1562.1201,551,2044,219,2044,219,1537" style="stroke: #424242; stroke-width: 1.5;"/><line style="stroke: #424242; stroke-width: 1.5;" x1="219" x2="288" y1="1562.1201" y2="1562.1201"/><text fill="#222222" font-family="'Input Mono','Microsoft YaHei Mono',Menlo, Monaco, 'Courier New', monospace" font-size="14" lengthAdjust="spacingAndGlyphs" textLength="56" x="223" y="1555.0439">训练评估</text><rect fill="#BBDEFB" height="39.1201" rx="12.5" ry="12.5" style="stroke: #90CAF9; stroke-width: 1.5;" width="104" x="172" y="289"/><text fill="#222222" font-family="'Input Mono','Microsoft YaHei Mono',Menlo, Monaco, 'Courier New', monospace" font-size="14" lengthAdjust="spacingAndGlyphs" textLength="84" x="182" y="315.0439">创建训练方案</text><polygon fill="#FFE0B2" points="224,369,236,381,224,393,212,381,224,369" style="stroke: #FFCC80; stroke-width: 1.5;"/><rect fill="#BBDEFB" height="39.1201" rx="12.5" ry="12.5" style="stroke: #90CAF9; stroke-width: 1.5;" width="160" x="242" y="454"/><text fill="#222222" font-family="'Input Mono','Microsoft YaHei Mono',Menlo, Monaco, 'Courier New', monospace" font-size="14" lengthAdjust="spacingAndGlyphs" textLength="140" x="252" y="480.0439">克隆往期训练方案内容</text><rect fill="#BBDEFB" height="39.1201" rx="12.5" ry="12.5" style="stroke: #90CAF9; stroke-width: 1.5;" width="132" x="270" y="538.5"/><text fill="#222222" font-family="'Input Mono','Microsoft YaHei Mono',Menlo, Monaco, 'Courier New', monospace" font-size="14" lengthAdjust="spacingAndGlyphs" textLength="112" x="280" y="564.5439">编辑训练方案内容</text><path d="M32.5,534 L32.5,582.2402 A0,0 0 0 0 32.5,582.2402 L249.5,582.2402 A0,0 0 0 0 249.5,582.2402 L249.5,562 L269.81,558 L249.5,554 L249.5,544 L239.5,534 L32.5,534 A0,0 0 0 0 32.5,534 " fill="#90A4AE" style="stroke: #90A4AE; stroke-width: 1.0;"/><path d="M239.5,534 L239.5,544 L249.5,544 L239.5,534 " fill="#90A4AE" style="stroke: #90A4AE; stroke-width: 1.0;"/><text fill="#FFFFFF" font-family="'Input Mono','Microsoft YaHei Mono',Menlo, Monaco, 'Courier New', monospace" font-size="14" lengthAdjust="spacingAndGlyphs" textLength="196" x="38.5" y="555.0439">电子目标想定，参训装备想定，</text><text fill="#FFFFFF" font-family="'Input Mono','Microsoft YaHei Mono',Menlo, Monaco, 'Courier New', monospace" font-size="14" lengthAdjust="spacingAndGlyphs" textLength="182" x="38.5" y="574.1641">训练场景想定，过程控制想定</text><rect fill="#BBDEFB" height="39.1201" rx="12.5" ry="12.5" style="stroke: #90CAF9; stroke-width: 1.5;" width="104" x="284" y="623"/><text fill="#222222" font-family="'Input Mono','Microsoft YaHei Mono',Menlo, Monaco, 'Courier New', monospace" font-size="14" lengthAdjust="spacingAndGlyphs" textLength="84" x="294" y="649.0439">存储训练方案</text><rect fill="#BBDEFB" height="39.1201" rx="12.5" ry="12.5" style="stroke: #90CAF9; stroke-width: 1.5;" width="104" x="284" y="749"/><text fill="#222222" font-family="'Input Mono','Microsoft YaHei Mono',Menlo, Monaco, 'Courier New', monospace" font-size="14" lengthAdjust="spacingAndGlyphs" textLength="84" x="294" y="775.0439">解析方案内容</text><rect fill="#BBDEFB" height="39.1201" rx="12.5" ry="12.5" style="stroke: #90CAF9; stroke-width: 1.5;" width="104" x="284" y="829"/><text fill="#222222" font-family="'Input Mono','Microsoft YaHei Mono',Menlo, Monaco, 'Courier New', monospace" font-size="14" lengthAdjust="spacingAndGlyphs" textLength="84" x="294" y="855.0439">装备参数装订</text><path d="M408.5,834 L408.5,844.5 L388.08,848.5 L408.5,852.5 L408.5,863.1201 A0,0 0 0 0 408.5,863.1201 L527.5,863.1201 A0,0 0 0 0 527.5,863.1201 L527.5,844 L517.5,834 L408.5,834 A0,0 0 0 0 408.5,834 " fill="#90A4AE" style="stroke: #90A4AE; stroke-width: 1.0;"/><path d="M517.5,834 L517.5,844 L527.5,844 L517.5,834 " fill="#90A4AE" style="stroke: #90A4AE; stroke-width: 1.0;"/><text fill="#FFFFFF" font-family="'Input Mono','Microsoft YaHei Mono',Menlo, Monaco, 'Courier New', monospace" font-size="14" lengthAdjust="spacingAndGlyphs" textLength="98" x="414.5" y="855.0439">装备初始化设置</text><polygon fill="#FFE0B2" points="336,909,348,921,336,933,324,921,336,909" style="stroke: #FFCC80; stroke-width: 1.5;"/><rect fill="#BBDEFB" height="39.1201" rx="12.5" ry="12.5" style="stroke: #90CAF9; stroke-width: 1.5;" width="76" x="267" y="1078.5"/><text fill="#222222" font-family="'Input Mono','Microsoft YaHei Mono',Menlo, Monaco, 'Courier New', monospace" font-size="14" lengthAdjust="spacingAndGlyphs" textLength="56" x="277" y="1104.5439">装备控制</text><rect fill="#BBDEFB" height="39.1201" rx="12.5" ry="12.5" style="stroke: #90CAF9; stroke-width: 1.5;" width="104" x="330" y="994"/><text fill="#222222" font-family="'Input Mono','Microsoft YaHei Mono',Menlo, Monaco, 'Courier New', monospace" font-size="14" lengthAdjust="spacingAndGlyphs" textLength="84" x="340" y="1020.0439">电子目标模拟</text><path d="M363.5,1074 L363.5,1094 L343.16,1098 L363.5,1102 L363.5,1122.2402 A0,0 0 0 0 363.5,1122.2402 L580.5,1122.2402 A0,0 0 0 0 580.5,1122.2402 L580.5,1084 L570.5,1074 L363.5,1074 A0,0 0 0 0 363.5,1074 " fill="#90A4AE" style="stroke: #90A4AE; stroke-width: 1.0;"/><path d="M570.5,1074 L570.5,1084 L580.5,1084 L570.5,1074 " fill="#90A4AE" style="stroke: #90A4AE; stroke-width: 1.0;"/><text fill="#FFFFFF" font-family="'Input Mono','Microsoft YaHei Mono',Menlo, Monaco, 'Courier New', monospace" font-size="14" lengthAdjust="spacingAndGlyphs" textLength="196" x="369.5" y="1095.0439">电子目标输入，引导装备探测，</text><text fill="#FFFFFF" font-family="'Input Mono','Microsoft YaHei Mono',Menlo, Monaco, 'Courier New', monospace" font-size="14" lengthAdjust="spacingAndGlyphs" textLength="84" x="369.5" y="1114.1641">处置效果计算</text><rect fill="#BBDEFB" height="39.1201" rx="12.5" ry="12.5" style="stroke: #90CAF9; stroke-width: 1.5;" width="104" x="253" y="1209"/><text fill="#222222" font-family="'Input Mono','Microsoft YaHei Mono',Menlo, Monaco, 'Courier New', monospace" font-size="14" lengthAdjust="spacingAndGlyphs" textLength="84" x="263" y="1235.0439">物联信息收集</text><path d="M85.5,1214 L85.5,1243.1201 A0,0 0 0 0 85.5,1243.1201 L232.5,1243.1201 A0,0 0 0 0 232.5,1243.1201 L232.5,1232.5 L252.94,1228.5 L232.5,1224.5 L232.5,1224 L222.5,1214 L85.5,1214 A0,0 0 0 0 85.5,1214 " fill="#90A4AE" style="stroke: #90A4AE; stroke-width: 1.0;"/><path d="M222.5,1214 L222.5,1224 L232.5,1224 L222.5,1214 " fill="#90A4AE" style="stroke: #90A4AE; stroke-width: 1.0;"/><text fill="#FFFFFF" font-family="'Input Mono','Microsoft YaHei Mono',Menlo, Monaco, 'Courier New', monospace" font-size="14" lengthAdjust="spacingAndGlyphs" textLength="126" x="91.5" y="1235.0439">装备信息，目标信息</text><rect fill="#BBDEFB" height="39.1201" rx="12.5" ry="12.5" style="stroke: #90CAF9; stroke-width: 1.5;" width="76" x="267" y="1289"/><text fill="#222222" font-family="'Input Mono','Microsoft YaHei Mono',Menlo, Monaco, 'Courier New', monospace" font-size="14" lengthAdjust="spacingAndGlyphs" textLength="56" x="277" y="1315.0439">态势生成</text><rect fill="#BBDEFB" height="39.1201" rx="12.5" ry="12.5" style="stroke: #90CAF9; stroke-width: 1.5;" width="76" x="267" y="1369"/><text fill="#222222" font-family="'Input Mono','Microsoft YaHei Mono',Menlo, Monaco, 'Courier New', monospace" font-size="14" lengthAdjust="spacingAndGlyphs" textLength="56" x="277" y="1395.0439">态势存储</text><rect fill="#BBDEFB" height="39.1201" rx="12.5" ry="12.5" style="stroke: #90CAF9; stroke-width: 1.5;" width="76" x="267" y="1449"/><text fill="#222222" font-family="'Input Mono','Microsoft YaHei Mono',Menlo, Monaco, 'Courier New', monospace" font-size="14" lengthAdjust="spacingAndGlyphs" textLength="56" x="277" y="1475.0439">态势展示</text><rect fill="#BBDEFB" height="39.1201" rx="12.5" ry="12.5" style="stroke: #90CAF9; stroke-width: 1.5;" width="104" x="253" y="1575"/><text fill="#222222" font-family="'Input Mono','Microsoft YaHei Mono',Menlo, Monaco, 'Courier New', monospace" font-size="14" lengthAdjust="spacingAndGlyphs" textLength="84" x="263" y="1601.0439">创建评估方案</text><polygon fill="#FFE0B2" points="305,1655,317,1667,305,1679,293,1667,305,1655" style="stroke: #FFCC80; stroke-width: 1.5;"/><rect fill="#BBDEFB" height="39.1201" rx="12.5" ry="12.5" style="stroke: #90CAF9; stroke-width: 1.5;" width="160" x="323" y="1740"/><text fill="#222222" font-family="'Input Mono','Microsoft YaHei Mono',Menlo, Monaco, 'Courier New', monospace" font-size="14" lengthAdjust="spacingAndGlyphs" textLength="140" x="333" y="1766.0439">克隆往期评估方案内容</text><rect fill="#BBDEFB" height="39.1201" rx="12.5" ry="12.5" style="stroke: #90CAF9; stroke-width: 1.5;" width="132" x="235" y="1824.5"/><text fill="#222222" font-family="'Input Mono','Microsoft YaHei Mono',Menlo, Monaco, 'Courier New', monospace" font-size="14" lengthAdjust="spacingAndGlyphs" textLength="112" x="245" y="1850.5439">编辑评估方案内容</text><path d="M387.5,1820 L387.5,1840 L367.25,1844 L387.5,1848 L387.5,1868.2402 A0,0 0 0 0 387.5,1868.2402 L534.5,1868.2402 A0,0 0 0 0 534.5,1868.2402 L534.5,1830 L524.5,1820 L387.5,1820 A0,0 0 0 0 387.5,1820 " fill="#90A4AE" style="stroke: #90A4AE; stroke-width: 1.0;"/><path d="M524.5,1820 L524.5,1830 L534.5,1830 L524.5,1820 " fill="#90A4AE" style="stroke: #90A4AE; stroke-width: 1.0;"/><text fill="#FFFFFF" font-family="'Input Mono','Microsoft YaHei Mono',Menlo, Monaco, 'Courier New', monospace" font-size="14" lengthAdjust="spacingAndGlyphs" textLength="98" x="393.5" y="1841.0439">评估算法选择，</text><text fill="#FFFFFF" font-family="'Input Mono','Microsoft YaHei Mono',Menlo, Monaco, 'Courier New', monospace" font-size="14" lengthAdjust="spacingAndGlyphs" textLength="126" x="393.5" y="1860.1641">各个因素权重设置等</text><rect fill="#BBDEFB" height="39.1201" rx="12.5" ry="12.5" style="stroke: #90CAF9; stroke-width: 1.5;" width="104" x="249" y="1909"/><text fill="#222222" font-family="'Input Mono','Microsoft YaHei Mono',Menlo, Monaco, 'Courier New', monospace" font-size="14" lengthAdjust="spacingAndGlyphs" textLength="84" x="259" y="1935.0439">存储评估方案</text><rect fill="#BBDEFB" height="39.1201" rx="12.5" ry="12.5" style="stroke: #90CAF9; stroke-width: 1.5;" width="76" x="263" y="1989"/><text fill="#222222" font-family="'Input Mono','Microsoft YaHei Mono',Menlo, Monaco, 'Courier New', monospace" font-size="14" lengthAdjust="spacingAndGlyphs" textLength="56" x="273" y="2015.0439">训练评估</text><ellipse cx="224" cy="16" fill="#37A77C" rx="10" ry="10" style="stroke: none; stroke-width: 1.0;"/><rect fill="#BBDEFB" height="39.1201" rx="12.5" ry="12.5" style="stroke: #90CAF9; stroke-width: 1.5;" width="132" x="158" y="81"/><text fill="#222222" font-family="'Input Mono','Microsoft YaHei Mono',Menlo, Monaco, 'Courier New', monospace" font-size="14" lengthAdjust="spacingAndGlyphs" textLength="112" x="168" y="107.0439">加载往期任务列表</text><path d="M310.5,67 L310.5,96.5 L290.27,100.5 L310.5,104.5 L310.5,134.3604 A0,0 0 0 0 310.5,134.3604 L527.5,134.3604 A0,0 0 0 0 527.5,134.3604 L527.5,77 L517.5,67 L310.5,67 A0,0 0 0 0 310.5,67 " fill="#90A4AE" style="stroke: #90A4AE; stroke-width: 1.0;"/><path d="M517.5,67 L517.5,77 L527.5,77 L517.5,67 " fill="#90A4AE" style="stroke: #90A4AE; stroke-width: 1.0;"/><text fill="#FFFFFF" font-family="'Input Mono','Microsoft YaHei Mono',Menlo, Monaco, 'Courier New', monospace" font-size="14" lengthAdjust="spacingAndGlyphs" textLength="196" x="316.5" y="88.0439">任务编号，训练方案，评估方案</text><text fill="#FFFFFF" font-family="'Input Mono','Microsoft YaHei Mono',Menlo, Monaco, 'Courier New', monospace" font-size="14" lengthAdjust="spacingAndGlyphs" textLength="182" x="316.5" y="107.1641">，评估结果，训练过程信息，</text><text fill="#FFFFFF" font-family="'Input Mono','Microsoft YaHei Mono',Menlo, Monaco, 'Courier New', monospace" font-size="14" lengthAdjust="spacingAndGlyphs" textLength="84" x="316.5" y="126.2842">训练态势信息</text><rect fill="#BBDEFB" height="39.1201" rx="12.5" ry="12.5" style="stroke: #90CAF9; stroke-width: 1.5;" width="76" x="186" y="175"/><text fill="#222222" font-family="'Input Mono','Microsoft YaHei Mono',Menlo, Monaco, 'Courier New', monospace" font-size="14" lengthAdjust="spacingAndGlyphs" textLength="56" x="196" y="201.0439">创建任务</text><ellipse cx="301" cy="2111" fill="none" rx="10" ry="10" style="stroke: #F6363F; stroke-width: 1.0;"/><ellipse cx="301.5" cy="2111.5" fill="#F6363F" rx="6" ry="6" style="stroke: none; stroke-width: 1.0;"/><!--MD5=[69e8969e88de3174dc3f7bfb606dd651]
link start to 加载往期任务列表--><path d="M224,26.14 C224,37.98 224,59.04 224,75.57 " fill="none" id="start-to-加载往期任务列表" style="stroke: #1565C0; stroke-width: 1.0;"/><polygon fill="#1565C0" points="224,80.98,228,71.98,224,75.98,220,71.98,224,80.98" style="stroke: #1565C0; stroke-width: 1.0;"/><!--MD5=[9f1264a60981b67fee5ad6f29af546b1]
link 加载往期任务列表 to 创建任务--><path d="M224,120.12 C224,134.46 224,154.38 224,169.85 " fill="none" id="加载往期任务列表-to-创建任务" style="stroke: #1565C0; stroke-width: 1.0;"/><polygon fill="#1565C0" points="224,174.91,228,165.91,224,169.91,220,165.91,224,174.91" style="stroke: #1565C0; stroke-width: 1.0;"/><!--MD5=[33ff70e696d96acf626e64fb46cc5107]
link 创建任务 to 创建训练方案--><path d="M224,214.25 C224,233.31 224,262.9 224,283.63 " fill="none" id="创建任务-to-创建训练方案" style="stroke: #1565C0; stroke-width: 1.0;"/><polygon fill="#1565C0" points="224,288.69,228,279.69,224,283.69,220,279.69,224,288.69" style="stroke: #1565C0; stroke-width: 1.0;"/><!--MD5=[b76cc095d965c47df26d110f5b132ca0]
link 创建训练方案 to #13--><path d="M224,328.02 C224,339 224,352.8 224,363.42 " fill="none" id="创建训练方案-to-#13" style="stroke: #1565C0; stroke-width: 1.0;"/><polygon fill="#1565C0" points="224,368.65,228,359.65,224,363.65,220,359.65,224,368.65" style="stroke: #1565C0; stroke-width: 1.0;"/><text fill="#222222" font-family="'Input Mono','Microsoft YaHei Mono',Menlo, Monaco, 'Courier New', monospace" font-size="14" lengthAdjust="spacingAndGlyphs" textLength="126" x="77.9187" y="358.7484">参考往期训练方案？</text><!--MD5=[3234edee82b5880c9c8ae3ef3c4849c7]
link #13 to 克隆往期训练方案内容--><path d="M229.84,387.39 C242.92,399.48 275.24,429.32 297.9,450.24 " fill="none" id="#13-to-克隆往期训练方案内容" style="stroke: #1565C0; stroke-width: 1.0;"/><polygon fill="#1565C0" points="301.72,453.78,297.8345,444.73,298.0515,450.3827,292.3988,450.5996,301.72,453.78" style="stroke: #1565C0; stroke-width: 1.0;"/><text fill="#222222" font-family="'Input Mono','Microsoft YaHei Mono',Menlo, Monaco, 'Courier New', monospace" font-size="14" lengthAdjust="spacingAndGlyphs" textLength="9" x="279" y="430.0439">Y</text><!--MD5=[d125c10f650cc461695c8d7102ab8f0f]
link 克隆往期训练方案内容 to 编辑训练方案内容--><path d="M325.18,493.22 C327.18,505.03 329.79,520.4 331.94,533.1 " fill="none" id="克隆往期训练方案内容-to-编辑训练方案内容" style="stroke: #1565C0; stroke-width: 1.0;"/><polygon fill="#1565C0" points="332.84,538.35,335.2657,528.8045,331.9972,533.4215,327.3801,530.1531,332.84,538.35" style="stroke: #1565C0; stroke-width: 1.0;"/><!--MD5=[607d802579962ec95353e3cb9a76d3a3]
link #13 to 编辑训练方案内容--><path d="M221.02,390.25 C214.54,409.73 201.26,459.43 221,493 C232.47,512.5 252.26,526.49 272.24,536.32 " fill="none" id="#13-to-编辑训练方案内容" style="stroke: #1565C0; stroke-width: 1.0;"/><polygon fill="#1565C0" points="276.77,538.48,270.3741,530.9905,272.2586,536.3242,266.9249,538.2087,276.77,538.48" style="stroke: #1565C0; stroke-width: 1.0;"/><text fill="#222222" font-family="'Input Mono','Microsoft YaHei Mono',Menlo, Monaco, 'Courier New', monospace" font-size="14" lengthAdjust="spacingAndGlyphs" textLength="9" x="222" y="480.0439">N</text><!--MD5=[ceef6def30d6ec87508d27bcdc43bab1]
link 编辑训练方案内容 to 存储训练方案--><path d="M336,577.72 C336,589.53 336,604.9 336,617.6 " fill="none" id="编辑训练方案内容-to-存储训练方案" style="stroke: #1565C0; stroke-width: 1.0;"/><polygon fill="#1565C0" points="336,622.85,340,613.85,336,617.85,332,613.85,336,622.85" style="stroke: #1565C0; stroke-width: 1.0;"/><!--MD5=[e3ae4784c41dc40571b4ec25d4a7fbdf]
link 存储训练方案 to 解析方案内容--><path d="M336,662.06 C336,683.8 336,719.84 336,743.63 " fill="none" id="存储训练方案-to-解析方案内容" style="stroke: #1565C0; stroke-width: 1.0;"/><polygon fill="#1565C0" points="336,748.81,340,739.81,336,743.81,332,739.81,336,748.81" style="stroke: #1565C0; stroke-width: 1.0;"/><!--MD5=[e835df34f195d24c7aea34d86ba1e805]
link 解析方案内容 to 装备参数装订--><path d="M336,788.38 C336,799.02 336,812.4 336,823.74 " fill="none" id="解析方案内容-to-装备参数装订" style="stroke: #1565C0; stroke-width: 1.0;"/><polygon fill="#1565C0" points="336,828.79,340,819.79,336,823.79,332,819.79,336,828.79" style="stroke: #1565C0; stroke-width: 1.0;"/><!--MD5=[472d4bf822c99e808c222bb6e7130b21]
link 装备参数装订 to #34--><path d="M336,868.02 C336,879 336,892.8 336,903.42 " fill="none" id="装备参数装订-to-#34" style="stroke: #1565C0; stroke-width: 1.0;"/><polygon fill="#1565C0" points="336,908.65,340,899.65,336,903.65,332,899.65,336,908.65" style="stroke: #1565C0; stroke-width: 1.0;"/><text fill="#222222" font-family="'Input Mono','Microsoft YaHei Mono',Menlo, Monaco, 'Courier New', monospace" font-size="14" lengthAdjust="spacingAndGlyphs" textLength="98" x="220.5438" y="897.9313">随机电子目标？</text><!--MD5=[6e2907bb2eee821197e61707f0b7ce30]
link #34 to 装备控制--><path d="M332.15,929.75 C325.93,942.68 313.9,969.66 309,994 C303.62,1020.68 303.22,1052.02 303.79,1073.06 " fill="none" id="#34-to-装备控制" style="stroke: #1565C0; stroke-width: 1.0;"/><polygon fill="#1565C0" points="303.95,1078.18,307.6653,1069.0588,303.7929,1073.1825,299.6693,1069.3101,303.95,1078.18" style="stroke: #1565C0; stroke-width: 1.0;"/><text fill="#222222" font-family="'Input Mono','Microsoft YaHei Mono',Menlo, Monaco, 'Courier New', monospace" font-size="14" lengthAdjust="spacingAndGlyphs" textLength="9" x="310" y="1020.0439">Y</text><!--MD5=[06db074a43a1d05a388199aebca41846]
link #34 to 电子目标模拟--><path d="M339.76,929.41 C346.32,942.3 360.09,969.39 370.13,989.15 " fill="none" id="#34-to-电子目标模拟" style="stroke: #1565C0; stroke-width: 1.0;"/><polygon fill="#1565C0" points="372.47,993.75,371.9725,983.9137,370.2111,989.2894,364.8354,987.528,372.47,993.75" style="stroke: #1565C0; stroke-width: 1.0;"/><text fill="#222222" font-family="'Input Mono','Microsoft YaHei Mono',Menlo, Monaco, 'Courier New', monospace" font-size="14" lengthAdjust="spacingAndGlyphs" textLength="9" x="362" y="970.0439">N</text><!--MD5=[9e3961cd7fd2d73f28513bf831fcc77c]
link 电子目标模拟 to 装备控制--><path d="M364.53,1033.22 C353.11,1045.46 338.13,1061.51 326.05,1074.45 " fill="none" id="电子目标模拟-to-装备控制" style="stroke: #1565C0; stroke-width: 1.0;"/><polygon fill="#1565C0" points="322.4,1078.35,331.4731,1074.5187,325.8192,1074.7019,325.6361,1069.048,322.4,1078.35" style="stroke: #1565C0; stroke-width: 1.0;"/><!--MD5=[37eb87a8d12c51b137e5d52c7834986d]
link 装备控制 to 物联信息收集--><path d="M305,1117.69 C305,1140.43 305,1178.87 305,1203.71 " fill="none" id="装备控制-to-物联信息收集" style="stroke: #1565C0; stroke-width: 1.0;"/><polygon fill="#1565C0" points="305,1208.79,309,1199.79,305,1203.79,301,1199.79,305,1208.79" style="stroke: #1565C0; stroke-width: 1.0;"/><!--MD5=[67df60b343997f947f819b444155a426]
link 物联信息收集 to 态势生成--><path d="M305,1248.38 C305,1259.02 305,1272.4 305,1283.74 " fill="none" id="物联信息收集-to-态势生成" style="stroke: #1565C0; stroke-width: 1.0;"/><polygon fill="#1565C0" points="305,1288.79,309,1279.79,305,1283.79,301,1279.79,305,1288.79" style="stroke: #1565C0; stroke-width: 1.0;"/><!--MD5=[3f9edd3c1ce8ceed6329f179bb8209d1]
link 态势生成 to 态势存储--><path d="M305,1328.38 C305,1339.02 305,1352.4 305,1363.74 " fill="none" id="态势生成-to-态势存储" style="stroke: #1565C0; stroke-width: 1.0;"/><polygon fill="#1565C0" points="305,1368.79,309,1359.79,305,1363.79,301,1359.79,305,1368.79" style="stroke: #1565C0; stroke-width: 1.0;"/><!--MD5=[ca7a74602f72030f0c0a535c8ebba93d]
link 态势存储 to 态势展示--><path d="M305,1408.38 C305,1419.02 305,1432.4 305,1443.74 " fill="none" id="态势存储-to-态势展示" style="stroke: #1565C0; stroke-width: 1.0;"/><polygon fill="#1565C0" points="305,1448.79,309,1439.79,305,1443.79,301,1439.79,305,1448.79" style="stroke: #1565C0; stroke-width: 1.0;"/><!--MD5=[72211a4c948aa8cc8485af677042cb50]
link 态势展示 to 创建评估方案--><path d="M305,1488.06 C305,1509.8 305,1545.84 305,1569.63 " fill="none" id="态势展示-to-创建评估方案" style="stroke: #1565C0; stroke-width: 1.0;"/><polygon fill="#1565C0" points="305,1574.81,309,1565.81,305,1569.81,301,1565.81,305,1574.81" style="stroke: #1565C0; stroke-width: 1.0;"/><!--MD5=[4d05473ac343b49ca80a13022ead3bf1]
link 创建评估方案 to #60--><path d="M305,1614.02 C305,1625 305,1638.8 305,1649.42 " fill="none" id="创建评估方案-to-#60" style="stroke: #1565C0; stroke-width: 1.0;"/><polygon fill="#1565C0" points="305,1654.65,309,1645.65,305,1649.65,301,1645.65,305,1654.65" style="stroke: #1565C0; stroke-width: 1.0;"/><text fill="#222222" font-family="'Input Mono','Microsoft YaHei Mono',Menlo, Monaco, 'Courier New', monospace" font-size="14" lengthAdjust="spacingAndGlyphs" textLength="126" x="158.9188" y="1644.7484">参考往期评估方案？</text><!--MD5=[3f415caa412339bf40a71a68902323c4]
link #60 to 克隆往期评估方案内容--><path d="M310.84,1673.39 C323.92,1685.48 356.24,1715.32 378.9,1736.24 " fill="none" id="#60-to-克隆往期评估方案内容" style="stroke: #1565C0; stroke-width: 1.0;"/><polygon fill="#1565C0" points="382.72,1739.78,378.8345,1730.73,379.0515,1736.3827,373.3988,1736.5996,382.72,1739.78" style="stroke: #1565C0; stroke-width: 1.0;"/><text fill="#222222" font-family="'Input Mono','Microsoft YaHei Mono',Menlo, Monaco, 'Courier New', monospace" font-size="14" lengthAdjust="spacingAndGlyphs" textLength="9" x="360" y="1716.0439">Y</text><!--MD5=[7b91655dfe2703ceda456af4714cc65c]
link 克隆往期评估方案内容 to 编辑评估方案内容--><path d="M380.11,1779.01 C364.73,1791.45 344.39,1807.9 328.19,1821.01 " fill="none" id="克隆往期评估方案内容-to-编辑评估方案内容" style="stroke: #1565C0; stroke-width: 1.0;"/><polygon fill="#1565C0" points="324.17,1824.26,333.6774,1821.6891,328.0506,1821.107,328.6327,1815.4802,324.17,1824.26" style="stroke: #1565C0; stroke-width: 1.0;"/><!--MD5=[c0693485b4a3308246c1799b46ac49c1]
link #60 to 编辑评估方案内容--><path d="M304.45,1678.73 C303.74,1692.8 302.56,1718.24 302,1740 C301.3,1767.19 301.08,1798.43 301.02,1819.31 " fill="none" id="#60-to-编辑评估方案内容" style="stroke: #1565C0; stroke-width: 1.0;"/><polygon fill="#1565C0" points="301,1824.39,305,1815.39,301,1819.39,297,1815.39,301,1824.39" style="stroke: #1565C0; stroke-width: 1.0;"/><text fill="#222222" font-family="'Input Mono','Microsoft YaHei Mono',Menlo, Monaco, 'Courier New', monospace" font-size="14" lengthAdjust="spacingAndGlyphs" textLength="9" x="303" y="1766.0439">N</text><!--MD5=[8faf54fa4b2f14e7cb27111b8af79226]
link 编辑评估方案内容 to 存储评估方案--><path d="M301,1863.72 C301,1875.53 301,1890.9 301,1903.6 " fill="none" id="编辑评估方案内容-to-存储评估方案" style="stroke: #1565C0; stroke-width: 1.0;"/><polygon fill="#1565C0" points="301,1908.85,305,1899.85,301,1903.85,297,1899.85,301,1908.85" style="stroke: #1565C0; stroke-width: 1.0;"/><!--MD5=[63bf80951dc51784d5120ceb9f7bc833]
link 存储评估方案 to 训练评估--><path d="M301,1948.38 C301,1959.02 301,1972.4 301,1983.74 " fill="none" id="存储评估方案-to-训练评估" style="stroke: #1565C0; stroke-width: 1.0;"/><polygon fill="#1565C0" points="301,1988.79,305,1979.79,301,1983.79,297,1979.79,301,1988.79" style="stroke: #1565C0; stroke-width: 1.0;"/><!--MD5=[2e38605432d9ebde634b35f3c38e5ceb]
link 训练评估 to end--><path d="M301,2028.4 C301,2047.98 301,2078.14 301,2095.79 " fill="none" id="训练评估-to-end" style="stroke: #1565C0; stroke-width: 1.0;"/><polygon fill="#1565C0" points="301,2100.83,305,2091.83,301,2095.83,297,2091.83,301,2100.83" style="stroke: #1565C0; stroke-width: 1.0;"/><text fill="#222222" font-family="'Input Mono','Microsoft YaHei Mono',Menlo, Monaco, 'Courier New', monospace" font-size="14" lengthAdjust="spacingAndGlyphs" textLength="28" x="302" y="2077.0439">结束</text><!--MD5=[30a0a865bee64d9ed4b84d898070e807]
@startuml sts-work-sequence
'!include https://unpkg.com/plantuml-style-c4@latest/core.puml
' uncomment the following line and comment the first to use locally
!include plantuml-style-c4/core.puml

(*) - -> 加载往期任务列表
note right: 任务编号，训练方案，评估方案，评估结果，训练过程信息，训练态势信息
- -> 创建任务

partition 方案生成 {
    - -> 创建训练方案
    if "参考往期训练方案？" then
        - ->[Y] 克隆往期训练方案内容
        - -> 编辑训练方案内容
    else
        - ->[N] 编辑训练方案内容
    endif
    note left: 电子目标想定，参训装备想定，训练场景想定，过程控制想定
    - -> 存储训练方案
}

partition 方案执行 {
    - -> 解析方案内容
    - -> 装备参数装订
    note right: 装备初始化设置
    if "随机电子目标？" then
        - ->[Y] 装备控制
    else
        - ->[N] 电子目标模拟
    endif
    - -> 装备控制
    note right: 电子目标输入，引导装备探测，处置效果计算
}

partition 态势生成 {
    - -> 物联信息收集
    note left: 装备信息，目标信息
    - -> 态势生成
    - -> 态势存储
    - -> 态势展示
}

partition 训练评估 {
    - -> 创建评估方案
    if "参考往期评估方案？" then
        - ->[Y] 克隆往期评估方案内容
        - -> 编辑评估方案内容
    else
        - ->[N] 编辑评估方案内容
    endif
    note right: 评估算法选择，各个因素权重设置等
    - -> 存储评估方案
    - -> 训练评估
}

- -> [结束] (*)

@enduml

@startuml sts-work-sequence




















skinparam wrapWidth 200
skinparam maxMessageSize 150
skinparam ComponentStyle uml2
skinparam Shadowing false

skinparam Default {
    FontName "'Input Mono','Microsoft YaHei Mono',Menlo, Monaco, 'Courier New', monospace"
    FontColor #222222
    FontSize  14
    FontStyle plain
    Shadowing false
    TextAlignment center
    BackgroundColor #E3F2FD
    BorderColor #424242
}

skinparam Note {
    BackgroundColor #90A4AE
    BorderColor #90A4AE
    BorderThickness 1
    FontColor White
    Shadowing false
    TextAlignment left
}

skinparam Note<<quit>> {

    BackgroundColor #F9A825
    BorderColor #F9A825
}

skinparam Sequence {
    ActorBorderThickness 1
    LifeLineBorderColor GREEN
    ParticipantBorderThickness 0
    Shadowing false


    GroupBorderThickness 1
    GroupBorderColor #1565C0
    GroupBackgroundColor #BBDEFB
}

skinparam Activity {

    StartColor #37A77C
    EndColor #F6363F
    AttributeFontColor white
    AttributeFontSize  15
    AttributeFontname  Droid Sans Mono

    BackgroundColor #BBDEFB
    BorderColor #90CAF9
    BorderThickness 1

    ArrowThickness 1


    BarColor   #0D47A1


    DiamondBackgroundColor   #FFE0B2
    DiamondBorderColor    #FFCC80


}

skinparam Class {
    BackgroundColor #E3F2FD
    BorderColor #64B5F6
    BorderThickness 1


    StereotypeFontColor #589DF6
    StereotypeFontSize 14
}



skinparam Interface {
    BackgroundColor #E3F2FD
    BorderColor #424242
    FontSize 14


    StereotypeFontColor #589DF6
    StereotypeFontSize 1
}



skinparam Participant {
    BackgroundColor #1565C0
    BorderColor #1565C0
    FontColor White
    Shadowing false
}

skinparam Actor {
    BackgroundColor #1565C0
    BorderColor #1565C0
    Shadowing false
}

skinparam UseCase {
    BackgroundColor #64B5F6
    BorderColor #64B5F6
    Shadowing false
    ArrowThickness 1
    ArrowColor #1565C0

    ActorBackgroundColor #1565C0
    ActorBorderColor #0D47A1
    ActorShadowing false
 
}


skinparam State {
    FontSize           17

    AttributeFontSize  14
    
    BackgroundColor    #BBDEFB
    BorderColor        #90CAF9
    StartColor #37A77C
    EndColor #F6363F
}

skinparam Partition {
    BorderColor #424242
    BorderStyle dashed

    BorderThickness 1
}

skinparam rectangle {
    StereotypeFontSize 12
    shadowing false
}

skinparam database {
    StereotypeFontSize 12
    shadowing false
}

skinparam Queue {
    BackgroundColor #E3F2FD
    BorderColor #424242
}
skinparam Agent {
    BackgroundColor #E3F2FD
    BorderColor #424242
}
skinparam Artifact {
    BackgroundColor #E3F2FD
    BorderColor #424242
}

skinparam Boundary {
    BackgroundColor #E3F2FD
    BorderColor #424242
}
skinparam Card {
    BackgroundColor #E3F2FD
    BorderColor #424242
}

skinparam Cloud {
    BackgroundColor #E3F2FD
    BorderColor #424242
}

skinparam Component {
    BackgroundColor #E3F2FD
    BorderColor #424242
}
skinparam Control {
    BackgroundColor #E3F2FD
    BorderColor #424242
}
skinparam Database {
    BackgroundColor #E3F2FD
    BorderColor #424242
}

skinparam Entity {
    BackgroundColor #E3F2FD
    BorderColor #424242
}
skinparam File {
    BackgroundColor #E3F2FD
    BorderColor #424242
}
skinparam Folder {
    BackgroundColor #E3F2FD
    BorderColor #424242
   
}
skinparam Frame {
    BackgroundColor #E3F2FD
    BorderColor #424242
}
skinparam Node {
    BackgroundColor #E3F2FD
    BorderColor #424242
}


skinparam Package {
    BackgroundColor #E3F2FD
    BorderColor #424242
}
skinparam Stack {
    BackgroundColor #E3F2FD
    BorderColor #424242
}

skinparam Rectangle {
    BackgroundColor #E3F2FD
    BorderColor #424242
}

skinparam Storage {
    BackgroundColor #E3F2FD
    BorderColor #424242
}

skinparam rectangle<<usercase>> {
    Shadowing false
    StereotypeFontSize 0
    FontColor #424242
    BorderColor #424242
    BorderStyle dashed
    BackgroundColor White
}














(*) - -> 加载往期任务列表
note right: 任务编号，训练方案，评估方案，评估结果，训练过程信息，训练态势信息
- -> 创建任务

partition 方案生成 {
    - -> 创建训练方案
    if "参考往期训练方案？" then
        - ->[Y] 克隆往期训练方案内容
        - -> 编辑训练方案内容
    else
        - ->[N] 编辑训练方案内容
    endif
    note left: 电子目标想定，参训装备想定，训练场景想定，过程控制想定
    - -> 存储训练方案
}

partition 方案执行 {
    - -> 解析方案内容
    - -> 装备参数装订
    note right: 装备初始化设置
    if "随机电子目标？" then
        - ->[Y] 装备控制
    else
        - ->[N] 电子目标模拟
    endif
    - -> 装备控制
    note right: 电子目标输入，引导装备探测，处置效果计算
}

partition 态势生成 {
    - -> 物联信息收集
    note left: 装备信息，目标信息
    - -> 态势生成
    - -> 态势存储
    - -> 态势展示
}

partition 训练评估 {
    - -> 创建评估方案
    if "参考往期评估方案？" then
        - ->[Y] 克隆往期评估方案内容
        - -> 编辑评估方案内容
    else
        - ->[N] 编辑评估方案内容
    endif
    note right: 评估算法选择，各个因素权重设置等
    - -> 存储评估方案
    - -> 训练评估
}

- -> [结束] (*)

@enduml

PlantUML version 1.2020.18(Thu Oct 01 03:40:44 CST 2020)
(GPL source distribution)
Java Runtime: Java(TM) SE Runtime Environment
JVM: Java HotSpot(TM) 64-Bit Server VM
Default Encoding: GBK
Language: zh
Country: CN
--></g></svg>